# File created by Blade
# Date/Time:  Tue Jan 27 19:23:26 2015
#---------------------------------------------------------
:version 1.10
:name HOM
:units
  mass 1.0
  length 1.000000
  angle deg
:documentation
     Acclaim Skeleton File
:root
   axis xyz
   order TX TY TZ RX RY RZ
   position 0.000000 0.000000 0.000000
   orientation 0 0 0
:bonedata
   begin
      id 1
      name Spine_dum
      direction 0.000000 1.000000 0.000000
      length 6.116652
      axis 0.0 0.0 0.0 xyz
   end
   begin
      id 2
      name LeftUpLeg_dum
      direction 1.000000 0.000000 0.000000
      length 4.711765
      axis 0.0 0.0 0.0 xyz
   end
   begin
      id 3
      name RightUpLeg_dum
      direction -1.000000 0.000000 0.000000
      length 4.711765
      axis 0.0 0.0 0.0 xyz
   end
   begin
      id 4
      name Spine
      direction 0.000000 1.000000 0.000000
      length 0.000000
      axis 0.0 0.0 0.0 xyz
      dof rx ry rz
   end
   begin
      id 5
      name Spine_dum1
      direction 0.000000 1.000000 0.000000
      length 15.225563
      axis 0.0 0.0 0.0 xyz
   end
   begin
      id 6
      name Spine_dum2
      direction 0.000000 1.000000 0.000000
      length 8.977654
      axis 0.0 0.0 0.0 xyz
   end
   begin
      id 7
      name Spine_dum3
      direction 0.000000 1.000000 0.000000
      length 8.977654
      axis 0.0 0.0 0.0 xyz
   end
   begin
      id 8
      name Head
      direction 0.000000 1.000000 0.000000
      length 4.527550
      axis 0.0 0.0 0.0 xyz
      dof rx ry rz
   end
   begin
      id 9
      name LeftShoulder
      direction 1.000000 0.000000 0.000000
      length 7.110130
      axis 0.0 0.0 -90.0 xyz
      dof rx ry rz
   end
   begin
      id 10
      name LeftArm
      direction 1.000000 0.000000 0.000000
      length 10.398341
      axis 0.0 0.0 -90.0 xyz
      dof rx ry rz
   end
   begin
      id 11
      name LeftForeArm
      direction 1.000000 0.000000 0.000000
      length 8.888997
      axis 0.0 0.0 -90.0 xyz
      dof ry rz rx
   end
   begin
      id 12
      name LeftHand
      direction 0.000000 0.000000 0.000000
      length 0.000000
      axis 0.0 0.0 -90.0 xyz
      dof rx ry rz
   end
   begin
      id 13
      name LeftHand_dum1
      direction 0.000000 0.000000 0.000000
      length 0.000000
      axis 0.0 0.0 -90.0 xyz
   end
   begin
      id 14
      name LeftHand_dum2
      direction 1.000000 0.000000 0.000000
      length 3.937000
      axis 0.0 0.0 -90.0 xyz
   end
   begin
      id 15
      name LeftHandThumb1
      direction 0.000000 0.000000 1.000000
      length 3.937000
      axis 0.0 0.0 -90.0 xyz
      dof rx rz ry
   end
   begin
      id 16
      name RightShoulder
      direction -1.000000 0.000000 0.000000
      length 7.110130
      axis 0.0 0.0 90.0 xyz
      dof rx ry rz
   end
   begin
      id 17
      name RightArm
      direction -1.000000 0.000000 0.000000
      length 10.398341
      axis 0.0 0.0 90.0 xyz
      dof rx ry rz
   end
   begin
      id 18
      name RightForeArm
      direction -1.000000 0.000000 0.000000
      length 8.888997
      axis 0.0 0.0 90.0 xyz
      dof ry rz rx
   end
   begin
      id 19
      name RightHand
      direction 0.000000 0.000000 0.000000
      length 0.000000
      axis 0.0 0.0 90.0 xyz
      dof rx ry rz
   end
   begin
      id 20
      name RightHand_dum1
      direction 0.000000 0.000000 0.000000
      length 0.000000
      axis 0.0 0.0 90.0 xyz
   end
   begin
      id 21
      name RightHand_dum2
      direction -1.000000 0.000000 0.000000
      length 3.937000
      axis 0.0 0.0 90.0 xyz
   end
   begin
      id 22
      name RightHandThumb1
      direction 0.000000 0.000000 1.000000
      length 3.937000
      axis 0.0 0.0 90.0 xyz
      dof rx rz ry
   end
   begin
      id 23
      name LeftUpLeg
      direction 0.000000 -1.000000 0.000000
      length 15.510451
      axis 0.0 0.0 0.0 xyz
      dof rx ry rz
   end
   begin
      id 24
      name LeftLeg
      direction 0.000000 -1.000000 0.000000
      length 14.858061
      axis 0.0 0.0 0.0 xyz
      dof rx ry rz
   end
   begin
      id 25
      name LeftFoot
      direction 0.000000 -0.258819 0.965926
      length 5.128852
      axis 15.0 0.0 0.0 xyz
      dof rx ry rz
   end
   begin
      id 26
      name LeftToeBase
      direction 0.000000 0.000000 1.000000
      length 2.952750
      axis 0.0 0.0 0.0 xyz
      dof rx ry rz
   end
   begin
      id 27
      name RightUpLeg
      direction 0.000000 -1.000000 0.000000
      length 15.510451
      axis 0.0 0.0 0.0 xyz
      dof rx ry rz
   end
   begin
      id 28
      name RightLeg
      direction 0.000000 -1.000000 0.000000
      length 14.858061
      axis 0.0 0.0 0.0 xyz
      dof rx ry rz
   end
   begin
      id 29
      name RightFoot
      direction 0.000000 -0.258819 0.965926
      length 5.128852
      axis 15.0 0.0 0.0 xyz
      dof rx ry rz
   end
   begin
      id 30
      name RightToeBase
      direction 0.000000 0.000000 1.000000
      length 2.952750
      axis 0.0 0.0 0.0 xyz
      dof rx ry rz
   end
:hierarchy
   begin
      root Spine_dum LeftUpLeg_dum RightUpLeg_dum
      Spine_dum Spine
      LeftUpLeg_dum LeftUpLeg
      RightUpLeg_dum RightUpLeg
      Spine Spine_dum1 Spine_dum2 Spine_dum3
      Spine_dum1 Head
      Spine_dum2 LeftShoulder
      Spine_dum3 RightShoulder
      LeftShoulder LeftArm
      LeftArm LeftForeArm
      LeftForeArm LeftHand
      LeftHand LeftHand_dum1 LeftHand_dum2
      LeftHand_dum1 LeftHandThumb1
      RightShoulder RightArm
      RightArm RightForeArm
      RightForeArm RightHand
      RightHand RightHand_dum1 RightHand_dum2
      RightHand_dum1 RightHandThumb1
      LeftUpLeg LeftLeg
      LeftLeg LeftFoot
      LeftFoot LeftToeBase
      RightUpLeg RightLeg
      RightLeg RightFoot
      RightFoot RightToeBase
   end

# File created by Blade
# Date/Time:  Tue Jan 27 19:23:16 2015
# Frame Rate: 120.000 fps
#------------------------------------------------------
:FULLY-SPECIFIED
:DEGREES
1642
root 4.062920 32.336992 0.154413 -4.384155 8.985766 1.321212
Spine 0.131795 17.233253 0.965319
Head 7.737086 -33.730015 -11.735393
LeftShoulder -2.330460 -9.462248 22.752253
LeftArm -4.379296 40.847261 -102.504351
LeftForeArm 2.056515 0.000000 12.934799
LeftHand 10.329777 -0.000000 -7.242333
LeftHandThumb1 -26.253704 0.000000 33.147579
RightShoulder -3.869315 14.363137 -40.455895
RightArm 79.662232 46.732680 133.183337
RightForeArm 28.520950 -0.000000 97.856473
RightHand 31.059177 -0.000000 -14.975789
RightHandThumb1 -24.326973 -0.000000 -32.862282
LeftUpLeg 9.301256 -4.183654 -1.549675
LeftLeg 2.479313 -0.000000 -0.000000
LeftFoot -16.074673 11.774495 -22.216503
LeftToeBase 16.731607 -0.000000 -0.000000
RightUpLeg 11.367276 -14.948239 -0.689530
RightLeg -0.566696 -0.000000 0.000000
RightFoot -13.302574 -15.277186 14.618383
RightToeBase 10.224988 -0.000000 -0.000000
1643
root 4.064156 32.336761 0.153580 -4.386848 9.002768 1.319537
Spine 0.138489 17.236441 0.942039
Head 7.732944 -33.748538 -11.721135
LeftShoulder -2.319935 -9.467053 22.743516
LeftArm -4.406395 40.901832 -102.573092
LeftForeArm 1.985434 -0.000000 12.979083
LeftHand 10.334171 0.000000 -6.951747
LeftHandThumb1 -26.253704 0.000000 33.147579
RightShoulder -3.873290 14.343602 -40.449957
RightArm 79.518581 46.702286 132.978841
RightForeArm 28.527885 0.000000 97.834544
RightHand 31.075984 -0.000000 -14.908060
RightHandThumb1 -24.326973 -0.000000 -32.862282
LeftUpLeg 9.298736 -4.189071 -1.549669
LeftLeg 2.481200 -0.000000 -0.000000
LeftFoot -16.073581 11.780289 -22.193300
LeftToeBase 16.662662 -0.000000 -0.000000
RightUpLeg 11.366190 -14.965059 -0.690051
RightLeg -0.562270 -0.000000 0.000000
RightFoot -13.296234 -15.274197 14.627058
RightToeBase 10.208048 -0.000000 -0.000000
1644
root 4.066127 32.336740 0.150697 -4.377734 9.031562 1.317639
Spine 0.129150 17.214346 0.918739
Head 7.743537 -33.751027 -11.721483
LeftShoulder -2.316511 -9.459245 22.732344
LeftArm -4.421285 40.898756 -102.622872
LeftForeArm 1.979136 0.000000 13.033517
LeftHand 10.438968 -0.000000 -7.322078
LeftHandThumb1 -26.253704 0.000000 33.147579
RightShoulder -3.846419 14.318939 -40.435365
RightArm 79.444362 46.633796 132.859359
RightForeArm 28.412414 -0.000000 97.843525
RightHand 30.973205 0.000000 -14.768750
RightHandThumb1 -24.326973 -0.000000 -32.862282
LeftUpLeg 9.280639 -4.035699 -1.521693
LeftLeg 2.471404 -0.000000 -0.000000
LeftFoot -16.005489 11.636873 -22.122781
LeftToeBase 16.750159 -0.000000 -0.000000
RightUpLeg 11.345113 -14.990591 -0.691680
RightLeg -0.538722 -0.000000 0.000000
RightFoot -13.308568 -15.296465 14.614419
RightToeBase 10.182279 -0.000000 -0.000000
1645
root 4.067592 32.336511 0.150299 -4.381655 9.049853 1.315725
Spine 0.138662 17.214977 0.896529
Head 7.731108 -33.763300 -11.702245
LeftShoulder -2.306785 -9.469440 22.731216
LeftArm -4.456703 40.935005 -102.699146
LeftForeArm 2.043204 -0.000000 13.086029
LeftHand 10.437743 -0.000000 -7.283150
LeftHandThumb1 -26.253704 0.000000 33.147579
RightShoulder -3.854641 14.324994 -40.428752
RightArm 79.250224 46.597472 132.595561
RightForeArm 28.424865 -0.000000 97.835545
RightHand 30.892099 -0.000000 -14.729980
RightHandThumb1 -24.326973 -0.000000 -32.862282
LeftUpLeg 9.281698 -4.072680 -1.527269
LeftLeg 2.471839 -0.000000 -0.000000
LeftFoot -16.014293 11.652590 -22.130474
LeftToeBase 16.774231 -0.000000 -0.000000
RightUpLeg 11.342796 -15.002864 -0.693808
RightLeg -0.520597 -0.000000 0.000000
RightFoot -13.324117 -15.294317 14.632282
RightToeBase 10.181176 -0.000000 -0.000000
1646
root 4.069505 32.336307 0.150536 -4.390128 9.063466 1.312399
Spine 0.146521 17.208234 0.877782
Head 7.729142 -33.770296 -11.689083
LeftShoulder -2.306744 -9.462926 22.734198
LeftArm -4.478998 40.967953 -102.766312
LeftForeArm 2.050815 -0.000000 13.134954
LeftHand 10.481141 -0.000000 -7.333079
LeftHandThumb1 -26.253704 0.000000 33.147579
RightShoulder -3.857449 14.308937 -40.420638
RightArm 79.001291 46.562478 132.223909
RightForeArm 28.370851 -0.000000 97.800548
RightHand 31.026292 -0.000000 -14.776425
RightHandThumb1 -24.326973 -0.000000 -32.862282
LeftUpLeg 9.286792 -4.063773 -1.524447
LeftLeg 2.474584 -0.000000 -0.000000
LeftFoot -16.006424 11.622012 -22.126099
LeftToeBase 16.768321 -0.000000 -0.000000
RightUpLeg 11.352553 -15.007160 -0.696286
RightLeg -0.518408 -0.000000 0.000000
RightFoot -13.316498 -15.287689 14.625800
RightToeBase 10.137360 -0.000000 -0.000000
1647
root 4.070910 32.336314 0.148975 -4.388044 9.088924 1.316711
Spine 0.149970 17.175689 0.846050
Head 7.711142 -33.752348 -11.659245
LeftShoulder -2.312697 -9.439793 22.734560
LeftArm -4.479212 40.998441 -102.808647
LeftForeArm 2.099557 -0.000000 13.182829
LeftHand 10.377796 0.000000 -7.686805
LeftHandThumb1 -26.253704 0.000000 33.147579
RightShoulder -3.847487 14.297974 -40.413273
RightArm 78.722501 46.530407 131.812138
RightForeArm 28.241067 0.000000 97.788867
RightHand 30.964149 -0.000000 -14.947287
RightHandThumb1 -24.326973 -0.000000 -32.862282
LeftUpLeg 9.282048 -4.028991 -1.522987
LeftLeg 2.467480 -0.000000 -0.000000
LeftFoot -15.970671 11.582859 -22.080318
LeftToeBase 16.763414 -0.000000 -0.000000
RightUpLeg 11.343532 -15.033110 -0.707193
RightLeg -0.500038 -0.000000 0.000000
RightFoot -13.341405 -15.295157 14.640436
RightToeBase 10.195943 -0.000000 -0.000000
1648
root 4.072536 32.336380 0.147438 -4.385779 9.111866 1.321088
Spine 0.151722 17.133671 0.815870
Head 7.688099 -33.749675 -11.626207
LeftShoulder -2.319650 -9.445172 22.738873
LeftArm -4.522486 41.020080 -102.876009
LeftForeArm 2.020389 -0.000000 13.225806
LeftHand 10.455421 -0.000000 -7.656763
LeftHandThumb1 -26.253704 0.000000 33.147579
RightShoulder -3.842275 14.301360 -40.414457
RightArm 78.418053 46.501864 131.382874
RightForeArm 28.157866 -0.000000 97.761273
RightHand 30.954054 -0.000000 -15.012736
RightHandThumb1 -24.326973 -0.000000 -32.862282
LeftUpLeg 9.272711 -4.016331 -1.525159
LeftLeg 2.469666 -0.000000 -0.000000
LeftFoot -15.957403 11.554580 -22.060818
LeftToeBase 16.802749 -0.000000 -0.000000
RightUpLeg 11.335864 -15.023755 -0.710626
RightLeg -0.484820 -0.000000 0.000000
RightFoot -13.365343 -15.312102 14.667291
RightToeBase 10.245639 -0.000000 -0.000000
